<svg xmlns="http://www.w3.org/2000/svg" viewBox="0 0 512 512">
  <defs>
    <linearGradient id="capeGrad" x1="50%" y1="0%" x2="50%" y2="100%">
      <stop offset="0%" stop-color="#FF8A3D"/>
      <stop offset="55%" stop-color="#E04E00"/>
      <stop offset="100%" stop-color="#A83200"/>
    </linearGradient>
    <linearGradient id="capeGradLight" x1="50%" y1="0%" x2="50%" y2="100%">
      <stop offset="0%" stop-color="#FFA866"/>
      <stop offset="100%" stop-color="#E04E00"/>
    </linearGradient>
    <linearGradient id="metalGrad" x1="0%" y1="0%" x2="100%" y2="0%">
      <stop offset="0%" stop-color="#1A1A1A"/>
      <stop offset="50%" stop-color="#3A3A3A"/>
      <stop offset="100%" stop-color="#1A1A1A"/>
    </linearGradient>
  </defs>

  <rect width="512" height="512" rx="108" fill="#1A1A1A"/>

  <g transform="translate(66 28) scale(0.95)">
    <path d="M 90 110 Q 30 180 35 290 Q 50 400 130 450 Q 145 425 165 410 Q 150 360 145 290 Q 145 220 170 170 Q 130 145 90 110 Z" fill="#A83200" opacity="0.9"/>
    <path d="M 310 110 Q 370 180 365 290 Q 350 400 270 450 Q 255 425 235 410 Q 250 360 255 290 Q 255 220 230 170 Q 270 145 310 110 Z" fill="#A83200" opacity="0.9"/>
    <path d="M 80 100 Q 25 170 40 295 Q 70 405 180 445 Q 200 448 220 445 Q 330 405 360 295 Q 375 170 320 100 Q 280 135 200 135 Q 120 135 80 100 Z" fill="url(#capeGrad)"/>
    <path d="M 95 160 Q 80 260 110 380" stroke="#FFB380" stroke-width="4" fill="none" opacity="0.45" stroke-linecap="round"/>
    <path d="M 305 160 Q 320 260 290 380" stroke="#FFB380" stroke-width="4" fill="none" opacity="0.45" stroke-linecap="round"/>
    <path d="M 140 145 Q 130 270 155 415" stroke="#C44200" stroke-width="3" fill="none" opacity="0.5" stroke-linecap="round"/>
    <path d="M 260 145 Q 270 270 245 415" stroke="#C44200" stroke-width="3" fill="none" opacity="0.5" stroke-linecap="round"/>
    <path d="M 200 140 L 200 440" stroke="#C44200" stroke-width="3" fill="none" opacity="0.35"/>
    <path d="M 100 105 Q 200 80 300 105 Q 290 130 200 140 Q 110 130 100 105 Z" fill="#8B2A00"/>

    <g transform="translate(200, 270)">
      <rect x="-105" y="115" width="210" height="22" rx="3" fill="#1A1A1A"/>
      <rect x="-105" y="115" width="210" height="6" fill="#3A3A3A"/>
      <rect x="-100" y="108" width="200" height="7" fill="#2A2A2A"/>
      <rect x="-85" y="88" width="170" height="22" rx="2" fill="#1A1A1A" stroke="#3A3A3A" stroke-width="1"/>
      <rect x="-82" y="91" width="164" height="16" rx="1" fill="url(#capeGradLight)"/>
      <path d="M -100 115 L -100 -130 L -82 -130 L -82 115 Z" fill="url(#metalGrad)"/>
      <path d="M 100 115 L 100 -130 L 82 -130 L 82 115 Z" fill="url(#metalGrad)"/>
      <rect x="-100" y="-130" width="200" height="20" fill="#1A1A1A"/>
      <rect x="-100" y="-130" width="200" height="5" fill="#3A3A3A"/>
      <rect x="-82" y="-102" width="164" height="3" fill="#5A5A5A"/>
      <g transform="translate(0, -85)">
        <rect x="-32" y="-22" width="64" height="50" rx="5" fill="#1A1A1A"/>
        <rect x="-28" y="-18" width="56" height="7" rx="1" fill="#E04E00"/>
        <circle cx="0" cy="10" r="9" fill="#0A0A0A" stroke="#3A3A3A" stroke-width="1"/>
        <circle cx="0" cy="10" r="2" fill="#3A3A3A"/>
      </g>
      <g transform="translate(0, -50)">
        <rect x="-10" y="0" width="20" height="10" rx="1" fill="#1A1A1A"/>
        <path d="M -9 10 L 9 10 L 4 22 L -4 22 Z" fill="#2A2A2A"/>
        <rect x="-2" y="22" width="4" height="3" fill="#2A2A2A"/>
      </g>
    </g>
  </g>
</svg>
